<svg version="1.1" viewBox="0.0 0.0 120.0 120.0" fill="none" stroke="none" stroke-linecap="square" stroke-miterlimit="10" xmlns:xlink="http://www.w3.org/1999/xlink" xmlns="http://www.w3.org/2000/svg"><clipPath id="p.0"><path d="m0 0l120.0 0l0 120.0l-120.0 0l0 -120.0z" clip-rule="nonzero"/></clipPath><g clip-path="url(#p.0)"><path fill="#000000" fill-opacity="0.0" d="m0 0l120.0 0l0 120.0l-120.0 0z" fill-rule="evenodd"/><path fill="#000000" fill-opacity="0.0" d="m-1.3992971 1.5382653l117.41733 0l0 116.91338l-117.41733 0z" fill-rule="evenodd"/><path fill="#d5a6bd" d="m84.44445 112.79497l-24.781246 -35.640625l-24.34375 35.640625l-27.28125 0l37.984375 -52.20313l-36.078125 -50.453125l26.984375 0l23.609375 33.28125l23.171871 -33.28125l25.671875 0l-35.78125 49.5625l38.265625 53.093754l-27.421875 0z" fill-rule="nonzero"/><path fill="#000000" fill-opacity="0.0" d="m1.5885507 1.5435147l117.41732 0l0 116.91338l-117.41732 0z" fill-rule="evenodd"/><path fill="#000000" d="m88.97431 29.728962l0 62.531254l-14.46875 0l0 -25.640625l-28.406258 0l0 25.640625l-14.46875 0l0 -62.531254l14.46875 0l0 24.65625l28.406258 0l0 -24.65625l14.46875 0z" fill-rule="nonzero"/></g></svg>